<svg xmlns="http://www.w3.org/2000/svg" xmlns:xlink="http://www.w3.org/1999/xlink" width="1000" zoomAndPan="magnify" viewBox="0 0 750 749.999995" height="1000" preserveAspectRatio="xMidYMid meet" version="1.0"><defs><clipPath id="9805a8a861"><path d="M 116 217.023438 L 126.75 217.023438 L 126.75 291 L 116 291 Z M 116 217.023438 " clip-rule="nonzero"/></clipPath><clipPath id="6575c7ca28"><path d="M 75 222 L 126 222 L 126 303.058594 L 75 303.058594 Z M 75 222 " clip-rule="nonzero"/></clipPath><clipPath id="9df8b35d69"><path d="M 183 276.203125 L 204.4375 276.203125 L 204.4375 423 L 183 423 Z M 183 276.203125 " clip-rule="nonzero"/></clipPath><clipPath id="133aa2815a"><path d="M 101 287 L 202 287 L 202 448.265625 L 101 448.265625 Z M 101 287 " clip-rule="nonzero"/></clipPath><clipPath id="e7a8f9824e"><path d="M 640 254.0625 L 660.214844 254.0625 L 660.214844 387 L 640 387 Z M 640 254.0625 " clip-rule="nonzero"/></clipPath><clipPath id="91278fb0a3"><path d="M 566.464844 264 L 658 264 L 658 409.964844 L 566.464844 409.964844 Z M 566.464844 264 " clip-rule="nonzero"/></clipPath><clipPath id="6d489b77fd"><path d="M 694 427.511719 L 707.59375 427.511719 L 707.59375 512 L 694 512 Z M 694 427.511719 " clip-rule="nonzero"/></clipPath><clipPath id="f2613f37c3"><path d="M 647.59375 434 L 706 434 L 706 526.511719 L 647.59375 526.511719 Z M 647.59375 434 " clip-rule="nonzero"/></clipPath><clipPath id="bb9f5e3f70"><path d="M 116 163 L 473 163 L 473 574 L 116 574 Z M 116 163 " clip-rule="nonzero"/></clipPath><clipPath id="08a1c6195c"><path d="M 364.949219 674.992188 L -7.039062 468.925781 L 209.207031 78.570312 L 581.191406 284.640625 Z M 364.949219 674.992188 " clip-rule="nonzero"/></clipPath><clipPath id="361d13f52a"><path d="M 364.949219 674.992188 L -7.039062 468.925781 L 209.207031 78.570312 L 581.191406 284.640625 Z M 364.949219 674.992188 " clip-rule="nonzero"/></clipPath><clipPath id="d7ee40dbfa"><path d="M 270 167 L 621 167 L 621 580 L 270 580 Z M 270 167 " clip-rule="nonzero"/></clipPath><clipPath id="9f2a9b9318"><path d="M 393.746094 71.972656 L 756.886719 276.957031 L 544.160156 653.8125 L 181.019531 448.828125 Z M 393.746094 71.972656 " clip-rule="nonzero"/></clipPath><clipPath id="5788168a30"><path d="M 393.746094 71.972656 L 756.886719 276.957031 L 544.160156 653.8125 L 181.019531 448.828125 Z M 393.746094 71.972656 " clip-rule="nonzero"/></clipPath></defs><g clip-path="url(#9805a8a861)"><path fill="#ccb17b" d="M 218.664062 209.40625 C 210.363281 210.683594 202.28125 211.980469 194.183594 213.15625 C 181.914062 214.941406 175.074219 222.25 173.097656 234.183594 C 171.695312 242.648438 170.503906 251.171875 169.71875 259.714844 C 168.792969 269.820312 168.40625 279.976562 167.40625 290.175781 C 166.996094 286.011719 166.574219 281.851562 166.171875 277.6875 C 164.945312 264.871094 163.742188 252.054688 162.480469 239.246094 C 162.328125 237.699219 161.859375 236.1875 161.605469 234.648438 C 159.617188 222.558594 152.472656 215.601562 140.503906 213.53125 C 134.734375 212.535156 128.933594 211.722656 123.15625 210.800781 C 121.074219 210.46875 119.011719 210.058594 116.042969 209.523438 C 125.195312 208.375 133.378906 207.402344 141.546875 206.320312 C 153.347656 204.75 160.207031 197.792969 162.058594 186.269531 C 163.757812 175.695312 164.871094 165.019531 166.066406 154.371094 C 166.753906 148.214844 167.089844 142.023438 167.648438 135.0625 C 168.75 147.140625 169.605469 158.425781 170.867188 169.664062 C 171.585938 176.046875 172.820312 182.386719 174.105469 188.6875 C 176.140625 198.675781 182.601562 204.296875 192.445312 205.894531 C 201.101562 207.300781 209.835938 208.242188 218.664062 209.40625 Z M 218.664062 209.40625 " fill-opacity="1" fill-rule="nonzero"/></g><g clip-path="url(#6575c7ca28)"><path fill="#ccb17b" d="M 75.289062 259.710938 C 79.113281 259.101562 82.949219 258.570312 86.757812 257.863281 C 92.152344 256.855469 95.511719 253.441406 96.5 248.195312 C 97.683594 241.894531 98.359375 235.492188 99.175781 229.125 C 99.441406 227.027344 99.453125 224.898438 100.316406 222.695312 C 100.652344 225.332031 100.96875 227.972656 101.339844 230.605469 C 102.121094 236.199219 102.8125 241.804688 103.757812 247.367188 C 104.792969 253.4375 108.402344 257.070312 114.601562 257.980469 C 118.140625 258.5 121.671875 259.074219 125.269531 260.316406 C 124.039062 260.640625 122.824219 261.035156 121.578125 261.269531 C 120.429688 261.488281 119.242188 261.484375 118.089844 261.671875 C 107.640625 263.34375 104.011719 267.0625 102.65625 277.640625 C 102.109375 281.890625 101.746094 286.171875 101.316406 290.4375 C 100.882812 294.703125 100.46875 298.964844 99.710938 303.234375 C 99.132812 296.488281 98.628906 289.734375 97.949219 282.996094 C 97.613281 279.710938 97.121094 276.421875 96.386719 273.203125 C 95.097656 267.535156 91.5 263.992188 85.789062 262.757812 C 82.25 261.996094 78.675781 261.390625 75.121094 260.714844 C 75.175781 260.382812 75.234375 260.046875 75.289062 259.710938 Z M 75.289062 259.710938 " fill-opacity="1" fill-rule="nonzero"/></g><g clip-path="url(#9df8b35d69)"><path fill="#ccb17b" d="M 388.273438 260.972656 C 371.667969 263.523438 355.503906 266.121094 339.308594 268.472656 C 314.769531 272.039062 301.085938 286.660156 297.132812 310.523438 C 294.328125 327.457031 291.945312 344.503906 290.378906 361.589844 C 288.527344 381.800781 287.75 402.113281 285.753906 422.515625 C 284.929688 414.1875 284.089844 405.863281 283.285156 397.53125 C 280.828125 371.902344 278.421875 346.273438 275.902344 320.648438 C 275.597656 317.554688 274.65625 314.53125 274.152344 311.453125 C 270.171875 287.277344 255.882812 273.359375 231.941406 269.222656 C 220.40625 267.226562 208.808594 265.605469 197.246094 263.761719 C 193.089844 263.097656 188.957031 262.277344 183.019531 261.203125 C 201.332031 258.910156 217.695312 256.964844 234.03125 254.792969 C 257.636719 251.65625 271.351562 237.746094 275.058594 214.695312 C 278.453125 193.546875 280.683594 172.195312 283.070312 150.894531 C 284.453125 138.585938 285.121094 126.199219 286.238281 112.277344 C 288.441406 136.4375 290.148438 159.003906 292.675781 181.480469 C 294.113281 194.246094 296.582031 206.925781 299.148438 219.53125 C 303.21875 239.503906 316.148438 250.75 335.828125 253.949219 C 353.144531 256.761719 370.617188 258.640625 388.273438 260.972656 Z M 388.273438 260.972656 " fill-opacity="1" fill-rule="nonzero"/></g><g clip-path="url(#133aa2815a)"><path fill="#ccb17b" d="M 101.511719 361.585938 C 109.160156 360.367188 116.835938 359.300781 124.449219 357.882812 C 135.242188 355.871094 141.960938 349.039062 143.933594 338.550781 C 146.304688 325.945312 147.65625 313.144531 149.285156 300.410156 C 149.820312 296.214844 149.84375 291.953125 151.566406 287.546875 C 152.242188 292.824219 152.875 298.105469 153.613281 303.371094 C 155.175781 314.554688 156.558594 325.765625 158.453125 336.894531 C 160.523438 349.035156 167.746094 356.300781 180.140625 358.121094 C 187.21875 359.160156 194.28125 360.3125 201.472656 362.792969 C 199.015625 363.441406 196.582031 364.230469 194.089844 364.703125 C 191.796875 365.140625 189.421875 365.132812 187.113281 365.5 C 166.21875 368.847656 158.957031 376.285156 156.246094 397.441406 C 155.152344 405.945312 154.429688 414.503906 153.566406 423.035156 C 152.703125 431.566406 151.875 440.09375 150.355469 448.636719 C 149.203125 435.140625 148.195312 421.632812 146.832031 408.15625 C 146.164062 401.585938 145.175781 395.003906 143.710938 388.566406 C 141.128906 377.226562 133.933594 370.144531 122.511719 367.679688 C 115.4375 366.152344 108.289062 364.941406 101.175781 363.589844 C 101.285156 362.921875 101.402344 362.253906 101.511719 361.585938 Z M 101.511719 361.585938 " fill-opacity="1" fill-rule="nonzero"/></g><g clip-path="url(#e7a8f9824e)"><path fill="#ccb17b" d="M 826.277344 240.292969 C 811.261719 242.601562 796.648438 244.949219 782.003906 247.078125 C 759.8125 250.300781 747.4375 263.523438 743.863281 285.101562 C 741.328125 300.410156 739.171875 315.824219 737.757812 331.273438 C 736.082031 349.550781 735.382812 367.917969 733.578125 386.363281 C 732.832031 378.835938 732.070312 371.308594 731.34375 363.773438 C 729.125 340.597656 726.945312 317.421875 724.667969 294.253906 C 724.390625 291.457031 723.542969 288.722656 723.085938 285.941406 C 719.484375 264.082031 706.566406 251.496094 684.917969 247.753906 C 674.488281 245.949219 664 244.484375 653.546875 242.816406 C 649.785156 242.214844 646.050781 241.472656 640.683594 240.503906 C 657.238281 238.429688 672.035156 236.671875 686.804688 234.707031 C 708.152344 231.871094 720.554688 219.292969 723.902344 198.449219 C 726.976562 179.324219 728.992188 160.023438 731.152344 140.757812 C 732.398438 129.628906 733.003906 118.429688 734.015625 105.839844 C 736.003906 127.6875 737.546875 148.09375 739.835938 168.414062 C 741.136719 179.960938 743.367188 191.425781 745.6875 202.824219 C 749.367188 220.882812 761.058594 231.050781 778.855469 233.941406 C 794.511719 236.488281 810.308594 238.1875 826.277344 240.292969 Z M 826.277344 240.292969 " fill-opacity="1" fill-rule="nonzero"/></g><g clip-path="url(#91278fb0a3)"><path fill="#ccb17b" d="M 566.980469 331.269531 C 573.894531 330.167969 580.835938 329.207031 587.722656 327.925781 C 597.480469 326.105469 603.554688 319.925781 605.339844 310.441406 C 607.484375 299.046875 608.707031 287.46875 610.179688 275.953125 C 610.664062 272.160156 610.683594 268.304688 612.242188 264.324219 C 612.855469 269.09375 613.425781 273.871094 614.089844 278.632812 C 615.503906 288.746094 616.753906 298.882812 618.46875 308.945312 C 620.339844 319.925781 626.871094 326.492188 638.078125 328.136719 C 644.480469 329.078125 650.863281 330.117188 657.367188 332.363281 C 655.144531 332.949219 652.945312 333.660156 650.691406 334.089844 C 648.617188 334.484375 646.46875 334.476562 644.382812 334.8125 C 625.488281 337.835938 618.921875 344.5625 616.472656 363.691406 C 615.484375 371.382812 614.832031 379.121094 614.050781 386.835938 C 613.269531 394.546875 612.519531 402.261719 611.148438 409.984375 C 610.105469 397.78125 609.195312 385.566406 607.960938 373.382812 C 607.355469 367.441406 606.460938 361.488281 605.136719 355.664062 C 602.804688 345.414062 596.296875 339.007812 585.96875 336.78125 C 579.570312 335.398438 573.109375 334.304688 566.675781 333.082031 C 566.777344 332.480469 566.878906 331.875 566.980469 331.269531 Z M 566.980469 331.269531 " fill-opacity="1" fill-rule="nonzero"/></g><g clip-path="url(#6d489b77fd)"><path fill="#ccb17b" d="M 812.914062 418.746094 C 803.359375 420.214844 794.0625 421.707031 784.746094 423.0625 C 770.625 425.113281 762.753906 433.523438 760.476562 447.253906 C 758.863281 456.996094 757.492188 466.804688 756.59375 476.636719 C 755.527344 488.261719 755.082031 499.949219 753.929688 511.6875 C 753.457031 506.898438 752.972656 502.105469 752.511719 497.316406 C 751.097656 482.570312 749.710938 467.820312 748.261719 453.078125 C 748.085938 451.300781 747.546875 449.558594 747.257812 447.789062 C 744.964844 433.882812 736.746094 425.875 722.972656 423.492188 C 716.332031 422.34375 709.660156 421.410156 703.007812 420.347656 C 700.617188 419.96875 698.242188 419.496094 694.824219 418.878906 C 705.359375 417.558594 714.773438 416.441406 724.171875 415.191406 C 737.753906 413.386719 745.644531 405.382812 747.777344 392.121094 C 749.730469 379.953125 751.015625 367.667969 752.386719 355.414062 C 753.183594 348.332031 753.566406 341.203125 754.210938 333.195312 C 755.476562 347.09375 756.457031 360.078125 757.914062 373.011719 C 758.742188 380.355469 760.160156 387.652344 761.640625 394.902344 C 763.980469 406.394531 771.417969 412.863281 782.742188 414.703125 C 792.703125 416.324219 802.757812 417.40625 812.914062 418.746094 Z M 812.914062 418.746094 " fill-opacity="1" fill-rule="nonzero"/></g><g clip-path="url(#f2613f37c3)"><path fill="#ccb17b" d="M 647.929688 476.632812 C 652.328125 475.929688 656.746094 475.320312 661.125 474.503906 C 667.335938 473.347656 671.203125 469.414062 672.335938 463.378906 C 673.699219 456.128906 674.476562 448.761719 675.414062 441.433594 C 675.722656 439.019531 675.738281 436.570312 676.726562 434.035156 C 677.117188 437.070312 677.480469 440.109375 677.90625 443.140625 C 678.804688 449.574219 679.597656 456.023438 680.691406 462.425781 C 681.882812 469.414062 686.035156 473.59375 693.167969 474.640625 C 697.242188 475.238281 701.304688 475.898438 705.441406 477.328125 C 704.027344 477.699219 702.628906 478.15625 701.195312 478.425781 C 699.875 478.675781 698.507812 478.671875 697.179688 478.886719 C 685.15625 480.8125 680.980469 485.089844 679.417969 497.261719 C 678.792969 502.15625 678.375 507.078125 677.878906 511.988281 C 677.382812 516.894531 676.902344 521.804688 676.03125 526.714844 C 675.367188 518.953125 674.789062 511.179688 674.003906 503.425781 C 673.621094 499.648438 673.050781 495.859375 672.207031 492.15625 C 670.722656 485.632812 666.582031 481.554688 660.011719 480.140625 C 655.941406 479.261719 651.828125 478.5625 647.734375 477.785156 C 647.800781 477.402344 647.863281 477.015625 647.929688 476.632812 Z M 647.929688 476.632812 " fill-opacity="1" fill-rule="nonzero"/></g><g clip-path="url(#bb9f5e3f70)"><g clip-path="url(#08a1c6195c)"><g clip-path="url(#361d13f52a)"><path fill="#d4af7f" d="M 367 188.996094 C 394.695312 204.339844 419.210938 226.265625 437.960938 254.375 C 500.625 348.445312 475.148438 476.019531 381.152344 538.71875 C 302.835938 590.886719 199.542969 583.363281 129.84375 520.277344 L 116.371094 508.035156 L 132.976562 515.636719 C 186.28125 540.101562 247.175781 535.296875 295.835938 502.804688 C 372.609375 451.5625 393.457031 347.402344 342.21875 270.632812 C 301.304688 209.238281 226.269531 182.019531 155.519531 202.929688 L 137.78125 208.203125 L 153.574219 197.636719 C 219.503906 153.609375 301.992188 152.984375 367 188.996094 Z M 170.820312 542.792969 C 234.894531 578.285156 314.839844 576.15625 377.933594 534.03125 C 469.402344 473.019531 494.179688 348.90625 433.167969 257.441406 C 375.40625 170.773438 260.960938 143.945312 171.273438 193.28125 C 238.960938 180.609375 307.773438 209.074219 346.683594 267.480469 C 399.761719 346.863281 378.285156 454.519531 298.871094 507.484375 C 253.535156 537.695312 198.054688 544.75 147.273438 527.402344 C 154.851562 533.195312 162.710938 538.300781 170.820312 542.792969 Z M 170.820312 542.792969 " fill-opacity="1" fill-rule="nonzero"/></g></g></g><g clip-path="url(#d7ee40dbfa)"><g clip-path="url(#9f2a9b9318)"><g clip-path="url(#5788168a30)"><path fill="#ccb17b" d="M 375.28125 552.863281 C 377.691406 554.222656 380.125 555.53125 382.585938 556.792969 C 385.046875 558.050781 387.53125 559.261719 390.042969 560.421875 C 392.554688 561.582031 395.085938 562.691406 397.640625 563.75 C 400.195312 564.808594 402.769531 565.8125 405.363281 566.769531 C 407.960938 567.722656 410.574219 568.625 413.203125 569.472656 C 415.835938 570.324219 418.484375 571.121094 421.148438 571.863281 C 423.8125 572.605469 426.488281 573.292969 429.179688 573.929688 C 431.871094 574.5625 434.574219 575.144531 437.289062 575.667969 C 440.003906 576.195312 442.726562 576.667969 445.460938 577.082031 C 448.195312 577.5 450.9375 577.859375 453.683594 578.167969 C 456.433594 578.472656 459.1875 578.722656 461.945312 578.917969 C 464.703125 579.113281 467.464844 579.253906 470.226562 579.335938 C 472.992188 579.421875 475.753906 579.449219 478.519531 579.421875 C 481.285156 579.394531 484.050781 579.3125 486.8125 579.171875 C 489.570312 579.035156 492.328125 578.839844 495.082031 578.589844 C 497.835938 578.339844 500.585938 578.035156 503.328125 577.675781 C 506.070312 577.316406 508.800781 576.902344 511.527344 576.429688 C 514.25 575.960938 516.964844 575.4375 519.667969 574.855469 C 522.375 574.277344 525.066406 573.644531 527.742188 572.957031 C 530.421875 572.265625 533.085938 571.527344 535.734375 570.730469 C 538.382812 569.9375 541.011719 569.085938 543.625 568.1875 C 546.242188 567.285156 548.835938 566.332031 551.410156 565.328125 C 553.988281 564.320312 556.542969 563.265625 559.074219 562.15625 C 561.609375 561.046875 564.117188 559.890625 566.605469 558.679688 C 569.09375 557.46875 571.554688 556.210938 573.988281 554.902344 C 576.425781 553.59375 578.835938 552.238281 581.214844 550.832031 C 583.597656 549.425781 585.949219 547.972656 588.273438 546.472656 C 590.59375 544.972656 592.886719 543.425781 595.148438 541.835938 C 597.40625 540.242188 599.636719 538.605469 601.828125 536.921875 C 604.023438 535.242188 606.183594 533.515625 608.308594 531.746094 C 610.433594 529.976562 612.523438 528.164062 614.574219 526.3125 C 616.628906 524.460938 618.640625 522.566406 620.617188 520.632812 C 617.6875 521.652344 614.726562 522.585938 611.742188 523.433594 C 608.753906 524.28125 605.746094 525.039062 602.714844 525.710938 C 599.683594 526.382812 596.636719 526.960938 593.570312 527.453125 C 590.507812 527.945312 587.429688 528.347656 584.339844 528.65625 C 581.253906 528.96875 578.15625 529.1875 575.054688 529.316406 C 571.953125 529.445312 568.851562 529.484375 565.746094 529.429688 C 562.644531 529.378906 559.542969 529.234375 556.449219 528.996094 C 553.355469 528.761719 550.269531 528.433594 547.191406 528.019531 C 544.117188 527.601562 541.054688 527.09375 538.007812 526.496094 C 534.960938 525.902344 531.933594 525.214844 528.929688 524.441406 C 525.921875 523.667969 522.941406 522.804688 519.988281 521.855469 C 517.03125 520.90625 514.105469 519.871094 511.210938 518.746094 C 508.316406 517.625 505.457031 516.421875 502.632812 515.132812 C 499.8125 513.84375 497.027344 512.46875 494.285156 511.015625 C 491.539062 509.5625 488.84375 508.03125 486.191406 506.421875 C 483.535156 504.808594 480.933594 503.121094 478.378906 501.355469 C 475.824219 499.589844 473.324219 497.753906 470.878906 495.84375 C 468.433594 493.929688 466.046875 491.949219 463.714844 489.898438 C 461.386719 487.84375 459.121094 485.726562 456.914062 483.542969 C 454.710938 481.355469 452.570312 479.109375 450.496094 476.796875 C 448.425781 474.488281 446.421875 472.117188 444.488281 469.691406 C 442.554688 467.261719 440.691406 464.777344 438.90625 462.242188 C 437.117188 459.703125 435.40625 457.113281 433.769531 454.476562 C 432.132812 451.839844 430.578125 449.15625 429.097656 446.425781 C 427.621094 443.695312 426.222656 440.925781 424.910156 438.113281 C 423.59375 435.300781 422.363281 432.453125 421.214844 429.566406 C 420.066406 426.683594 419.003906 423.769531 418.027344 420.820312 C 417.050781 417.875 416.160156 414.902344 415.359375 411.902344 C 414.558594 408.90625 413.84375 405.886719 413.21875 402.84375 C 412.59375 399.804688 412.058594 396.746094 411.613281 393.675781 C 411.167969 390.601562 410.816406 387.519531 410.550781 384.425781 C 410.289062 381.332031 410.113281 378.234375 410.03125 375.132812 C 409.953125 372.027344 409.960938 368.925781 410.0625 365.824219 C 410.160156 362.722656 410.351562 359.625 410.636719 356.53125 C 410.917969 353.441406 411.292969 350.359375 411.753906 347.292969 C 412.21875 344.222656 412.773438 341.167969 413.414062 338.132812 C 414.058594 335.09375 414.789062 332.078125 415.609375 329.085938 C 416.429688 326.089844 417.335938 323.125 418.332031 320.183594 C 419.324219 317.242188 420.40625 314.332031 421.570312 311.457031 C 422.734375 308.578125 423.984375 305.738281 425.316406 302.933594 C 426.648438 300.132812 428.0625 297.367188 429.558594 294.648438 C 431.050781 291.925781 432.625 289.253906 434.277344 286.625 C 435.929688 283.996094 437.65625 281.417969 439.457031 278.890625 C 441.261719 276.363281 443.136719 273.894531 445.085938 271.476562 C 447.035156 269.058594 449.050781 266.703125 451.140625 264.402344 C 453.226562 262.105469 455.378906 259.871094 457.597656 257.699219 C 459.816406 255.527344 462.09375 253.421875 464.4375 251.386719 C 466.777344 249.347656 469.179688 247.378906 471.636719 245.484375 C 474.09375 243.585938 476.605469 241.765625 479.167969 240.015625 C 481.734375 238.265625 484.347656 236.59375 487.007812 235 C 489.671875 233.402344 492.378906 231.886719 495.132812 230.449219 C 497.882812 229.011719 500.675781 227.660156 503.507812 226.386719 C 506.339844 225.113281 509.203125 223.925781 512.105469 222.820312 C 515.007812 221.71875 517.9375 220.699219 520.898438 219.769531 C 523.859375 218.835938 526.847656 217.992188 529.855469 217.234375 C 532.867188 216.480469 535.898438 215.8125 538.949219 215.234375 C 542 214.65625 545.0625 214.167969 548.140625 213.769531 C 551.21875 213.371094 554.308594 213.0625 557.402344 212.847656 C 560.5 212.628906 563.601562 212.503906 566.707031 212.46875 C 569.808594 212.433594 572.910156 212.492188 576.011719 212.640625 C 579.113281 212.785156 582.207031 213.023438 585.292969 213.355469 C 588.378906 213.683594 591.453125 214.101562 594.515625 214.613281 C 597.578125 215.125 600.625 215.722656 603.648438 216.410156 C 606.675781 217.101562 609.679688 217.878906 612.664062 218.742188 C 609.964844 216.367188 607.203125 214.0625 604.382812 211.832031 C 601.566406 209.601562 598.6875 207.445312 595.757812 205.363281 C 592.824219 203.285156 589.839844 201.28125 586.800781 199.355469 C 583.765625 197.433594 580.679688 195.589844 577.546875 193.824219 C 574.410156 192.0625 571.234375 190.382812 568.011719 188.785156 C 564.789062 187.1875 561.527344 185.675781 558.226562 184.25 C 554.925781 182.824219 551.589844 181.488281 548.21875 180.234375 C 544.851562 178.984375 541.449219 177.820312 538.015625 176.75 C 534.585938 175.675781 531.128906 174.691406 527.644531 173.800781 C 524.160156 172.910156 520.65625 172.109375 517.132812 171.398438 C 513.605469 170.691406 510.066406 170.074219 506.507812 169.550781 C 502.949219 169.027344 499.382812 168.597656 495.800781 168.261719 C 492.222656 167.925781 488.636719 167.683594 485.042969 167.535156 C 481.449219 167.386719 477.855469 167.332031 474.261719 167.371094 C 470.664062 167.410156 467.074219 167.542969 463.484375 167.769531 C 459.898438 167.996094 456.316406 168.320312 452.746094 168.734375 C 449.171875 169.148438 445.613281 169.65625 442.070312 170.257812 C 438.523438 170.859375 434.996094 171.550781 431.488281 172.335938 C 427.980469 173.125 424.496094 174 421.03125 174.96875 C 417.570312 175.9375 414.132812 176.996094 410.726562 178.144531 C 407.320312 179.292969 403.945312 180.527344 400.601562 181.851562 C 397.257812 183.175781 393.953125 184.589844 390.683594 186.085938 C 387.414062 187.585938 384.1875 189.167969 381 190.832031 C 377.816406 192.5 374.675781 194.25 371.582031 196.082031 C 368.484375 197.914062 365.441406 199.824219 362.449219 201.8125 C 359.453125 203.804688 356.511719 205.871094 353.625 208.015625 C 350.742188 210.160156 347.914062 212.378906 345.140625 214.671875 C 342.371094 216.964844 339.664062 219.328125 337.019531 221.761719 C 334.371094 224.195312 331.792969 226.699219 329.277344 229.269531 C 326.761719 231.839844 324.3125 234.472656 321.9375 237.167969 C 319.558594 239.867188 317.253906 242.625 315.019531 245.441406 C 312.789062 248.261719 310.628906 251.136719 308.546875 254.066406 C 306.464844 257 304.460938 259.980469 302.535156 263.019531 C 300.609375 266.054688 298.761719 269.136719 296.996094 272.269531 C 295.234375 275.402344 293.550781 278.582031 291.953125 281.800781 C 290.355469 285.023438 288.839844 288.28125 287.414062 291.582031 C 285.984375 294.882812 284.644531 298.21875 283.390625 301.589844 C 282.136719 304.957031 280.972656 308.359375 279.898438 311.789062 C 278.824219 315.222656 277.839844 318.679688 276.945312 322.160156 C 276.050781 325.644531 275.25 329.148438 274.539062 332.671875 C 273.828125 336.195312 273.207031 339.738281 272.683594 343.296875 C 272.15625 346.851562 271.726562 350.421875 271.386719 354 C 271.046875 357.578125 270.804688 361.167969 270.652344 364.757812 C 270.503906 368.351562 270.445312 371.945312 270.484375 375.539062 C 270.519531 379.136719 270.652344 382.726562 270.875 386.316406 C 271.101562 389.90625 271.421875 393.484375 271.832031 397.058594 C 272.246094 400.628906 272.753906 404.1875 273.351562 407.734375 C 273.949219 411.277344 274.640625 414.804688 275.425781 418.316406 C 276.210938 421.824219 277.085938 425.3125 278.050781 428.773438 C 279.015625 432.238281 280.074219 435.671875 281.21875 439.082031 C 282.367188 442.488281 283.601562 445.867188 284.921875 449.207031 C 286.246094 452.550781 287.65625 455.859375 289.152344 459.128906 C 290.648438 462.398438 292.226562 465.625 293.890625 468.8125 C 295.558594 472 297.304688 475.140625 299.132812 478.238281 C 300.964844 481.332031 302.871094 484.378906 304.863281 487.375 C 306.851562 490.371094 308.917969 493.3125 311.058594 496.199219 C 313.203125 499.085938 315.417969 501.914062 317.710938 504.6875 C 320 507.457031 322.363281 510.167969 324.796875 512.816406 C 327.226562 515.460938 329.730469 518.042969 332.296875 520.5625 C 334.863281 523.078125 337.496094 525.527344 340.191406 527.90625 C 342.890625 530.285156 345.644531 532.589844 348.460938 534.824219 C 351.28125 537.058594 354.152344 539.21875 357.082031 541.304688 C 360.011719 543.386719 362.996094 545.394531 366.03125 547.324219 C 369.066406 549.25 372.148438 551.097656 375.28125 552.863281 Z M 375.28125 552.863281 " fill-opacity="1" fill-rule="nonzero"/></g></g></g></svg>